<mxfile host="app.diagrams.net" modified="2024-04-16T12:58:07.283Z" agent="Mozilla/5.0 (X11; Linux x86_64; rv:124.0) Gecko/20100101 Firefox/124.0" etag="9-4fZxKcHcURthggArwQ" version="24.2.5" type="github">
  <diagram name="Page-1" id="OtGXGn6vXExzVvDyVxfL">
    <mxGraphModel dx="7170" dy="3750" grid="1" gridSize="10" guides="1" tooltips="1" connect="1" arrows="1" fold="1" page="1" pageScale="1" pageWidth="850" pageHeight="1100" math="0" shadow="0">
      <root>
        <mxCell id="0" />
        <mxCell id="1" parent="0" />
        <mxCell id="qEKob0JS5A_DqUoURSJI-1" value="" style="rounded=0;whiteSpace=wrap;html=1;" vertex="1" parent="1">
          <mxGeometry x="280" y="40" width="1930" height="1080" as="geometry" />
        </mxCell>
        <mxCell id="qEKob0JS5A_DqUoURSJI-14" value="img" style="rounded=0;whiteSpace=wrap;html=1;fillColor=#f5f5f5;fontColor=#333333;strokeColor=#666666;" vertex="1" parent="1">
          <mxGeometry x="1290" y="40" width="920" height="910" as="geometry" />
        </mxCell>
        <mxCell id="qEKob0JS5A_DqUoURSJI-8" value="" style="rounded=0;whiteSpace=wrap;html=1;" vertex="1" parent="1">
          <mxGeometry x="660" y="506" width="610" height="290" as="geometry" />
        </mxCell>
        <mxCell id="qEKob0JS5A_DqUoURSJI-2" value="&lt;h1 style=&quot;margin-top: 0px;&quot;&gt;NAME&lt;br&gt;&lt;/h1&gt;&lt;h1 style=&quot;margin-top: 0px;&quot;&gt;&lt;font style=&quot;font-size: 72px;&quot;&gt;TITLETITLE&lt;/font&gt;&lt;/h1&gt;&lt;p align=&quot;justify&quot;&gt;&lt;font style=&quot;font-size: 24px;&quot;&gt;desc intro Lorem ipsum dolor sit amet, consectetur adipisicing elit, sed do eiusmod tempor incididunt ut labore et dolore magna aliqua.&lt;/font&gt;&lt;/p&gt;" style="text;html=1;whiteSpace=wrap;overflow=hidden;rounded=0;" vertex="1" parent="1">
          <mxGeometry x="670" y="553" width="600" height="350" as="geometry" />
        </mxCell>
        <mxCell id="qEKob0JS5A_DqUoURSJI-7" value="" style="rounded=0;whiteSpace=wrap;html=1;" vertex="1" parent="1">
          <mxGeometry x="566" y="507" width="80" height="290" as="geometry" />
        </mxCell>
        <mxCell id="qEKob0JS5A_DqUoURSJI-3" value="linkdein" style="rounded=0;whiteSpace=wrap;html=1;fillColor=#fff2cc;strokeColor=#d6b656;" vertex="1" parent="1">
          <mxGeometry x="570" y="527" width="70" height="70" as="geometry" />
        </mxCell>
        <mxCell id="qEKob0JS5A_DqUoURSJI-4" value="GITHUB" style="rounded=0;whiteSpace=wrap;html=1;fillColor=#fff2cc;strokeColor=#d6b656;" vertex="1" parent="1">
          <mxGeometry x="570" y="617" width="70" height="70" as="geometry" />
        </mxCell>
        <mxCell id="qEKob0JS5A_DqUoURSJI-5" value="IMPR" style="rounded=0;whiteSpace=wrap;html=1;fillColor=#fff2cc;strokeColor=#d6b656;" vertex="1" parent="1">
          <mxGeometry x="570" y="707" width="70" height="70" as="geometry" />
        </mxCell>
        <mxCell id="qEKob0JS5A_DqUoURSJI-6" value="&lt;div align=&quot;left&quot;&gt;MENU&lt;/div&gt;" style="rounded=0;whiteSpace=wrap;html=1;align=left;" vertex="1" parent="1">
          <mxGeometry x="280" y="950" width="1930" height="170" as="geometry" />
        </mxCell>
        <mxCell id="qEKob0JS5A_DqUoURSJI-9" value="formation" style="rounded=0;whiteSpace=wrap;html=1;fillColor=#ffe6cc;strokeColor=#d79b00;" vertex="1" parent="1">
          <mxGeometry x="660" y="1000" width="221.67" height="70" as="geometry" />
        </mxCell>
        <mxCell id="qEKob0JS5A_DqUoURSJI-10" value="exp" style="rounded=0;whiteSpace=wrap;html=1;fillColor=#ffe6cc;strokeColor=#d79b00;" vertex="1" parent="1">
          <mxGeometry x="897" y="1000" width="221.67" height="70" as="geometry" />
        </mxCell>
        <mxCell id="qEKob0JS5A_DqUoURSJI-11" value="skills" style="rounded=0;whiteSpace=wrap;html=1;fillColor=#ffe6cc;strokeColor=#d79b00;" vertex="1" parent="1">
          <mxGeometry x="1135" y="1000" width="221.67" height="70" as="geometry" />
        </mxCell>
        <mxCell id="qEKob0JS5A_DqUoURSJI-12" value="hobbies" style="rounded=0;whiteSpace=wrap;html=1;fillColor=#ffe6cc;strokeColor=#d79b00;" vertex="1" parent="1">
          <mxGeometry x="1372" y="1000" width="221.67" height="70" as="geometry" />
        </mxCell>
        <mxCell id="qEKob0JS5A_DqUoURSJI-13" value="contact" style="rounded=0;whiteSpace=wrap;html=1;fillColor=#f8cecc;strokeColor=#b85450;" vertex="1" parent="1">
          <mxGeometry x="1610" y="1000" width="221.67" height="70" as="geometry" />
        </mxCell>
        <mxCell id="qEKob0JS5A_DqUoURSJI-15" value="Formation" style="text;html=1;align=right;verticalAlign=middle;whiteSpace=wrap;rounded=0;fontStyle=1;horizontal=1;fontSize=50;fillColor=#f5f5f5;fontColor=#333333;strokeColor=#666666;" vertex="1" parent="1">
          <mxGeometry x="373.67" y="1330" width="430" height="30" as="geometry" />
        </mxCell>
        <mxCell id="qEKob0JS5A_DqUoURSJI-16" value="" style="rounded=0;whiteSpace=wrap;html=1;" vertex="1" parent="1">
          <mxGeometry x="800" y="1446" width="900" height="224" as="geometry" />
        </mxCell>
        <mxCell id="qEKob0JS5A_DqUoURSJI-17" value="&lt;h1 style=&quot;margin-top: 0px;&quot;&gt;&lt;font style=&quot;font-size: 26px;&quot;&gt;FORMA1ng&lt;/font&gt;&lt;/h1&gt;&lt;div&gt;&lt;br&gt;&lt;/div&gt;&lt;p style=&quot;font-size: 15px;&quot;&gt;L&lt;font style=&quot;font-size: 15px;&quot;&gt;orem ipsum dolor sit amet, consectetur adipisicing elit, sed do eiusmod tempor incididunt ut labore et dolore magna aliqua.&lt;/font&gt;&lt;/p&gt;&lt;p style=&quot;font-size: 15px;&quot;&gt;&lt;font style=&quot;font-size: 15px;&quot;&gt;Lorem ipsum dolor sit amet, consectetur adipisicing elit, sed do eiusmod tempor incididunt ut labore et dolore magna aliqua.&lt;/font&gt;&lt;/p&gt;&lt;p style=&quot;font-size: 15px;&quot;&gt;&lt;font style=&quot;font-size: 15px;&quot;&gt;Lorem ipsum dolor sit amet, consectetur adipisicing elit, sed do eiusmod tempor incididunt ut labore et dolore magna aliqua&lt;/font&gt;.&lt;/p&gt;&lt;p&gt;&lt;/p&gt;&lt;p&gt;&lt;/p&gt;" style="text;html=1;whiteSpace=wrap;overflow=hidden;rounded=0;" vertex="1" parent="1">
          <mxGeometry x="820" y="1456" width="850" height="204" as="geometry" />
        </mxCell>
        <mxCell id="qEKob0JS5A_DqUoURSJI-19" value="&lt;div style=&quot;font-size: 22px;&quot; align=&quot;right&quot;&gt;&lt;font size=&quot;1&quot;&gt;&lt;b style=&quot;font-size: 26px;&quot;&gt;YEAR&lt;/b&gt;&lt;/font&gt;&lt;/div&gt;" style="rounded=0;whiteSpace=wrap;html=1;align=right;" vertex="1" parent="1">
          <mxGeometry x="640" y="1446" width="120" height="60" as="geometry" />
        </mxCell>
        <mxCell id="qEKob0JS5A_DqUoURSJI-20" value="" style="rounded=0;whiteSpace=wrap;html=1;" vertex="1" parent="1">
          <mxGeometry x="800" y="1690" width="900" height="224" as="geometry" />
        </mxCell>
        <mxCell id="qEKob0JS5A_DqUoURSJI-21" value="&lt;h1 style=&quot;margin-top: 0px;&quot;&gt;&lt;font style=&quot;font-size: 26px;&quot;&gt;FORMA1ng&lt;/font&gt;&lt;/h1&gt;&lt;div&gt;&lt;br&gt;&lt;/div&gt;&lt;p style=&quot;font-size: 15px;&quot;&gt;L&lt;font style=&quot;font-size: 15px;&quot;&gt;orem ipsum dolor sit amet, consectetur adipisicing elit, sed do eiusmod tempor incididunt ut labore et dolore magna aliqua.&lt;/font&gt;&lt;/p&gt;&lt;p style=&quot;font-size: 15px;&quot;&gt;&lt;font style=&quot;font-size: 15px;&quot;&gt;Lorem ipsum dolor sit amet, consectetur adipisicing elit, sed do eiusmod tempor incididunt ut labore et dolore magna aliqua.&lt;/font&gt;&lt;/p&gt;&lt;p style=&quot;font-size: 15px;&quot;&gt;&lt;font style=&quot;font-size: 15px;&quot;&gt;Lorem ipsum dolor sit amet, consectetur adipisicing elit, sed do eiusmod tempor incididunt ut labore et dolore magna aliqua&lt;/font&gt;.&lt;/p&gt;&lt;p&gt;&lt;/p&gt;&lt;p&gt;&lt;/p&gt;" style="text;html=1;whiteSpace=wrap;overflow=hidden;rounded=0;" vertex="1" parent="1">
          <mxGeometry x="820" y="1700" width="850" height="204" as="geometry" />
        </mxCell>
        <mxCell id="qEKob0JS5A_DqUoURSJI-22" value="&lt;div style=&quot;font-size: 22px;&quot; align=&quot;right&quot;&gt;&lt;font size=&quot;1&quot;&gt;&lt;b style=&quot;font-size: 26px;&quot;&gt;YEAR&lt;/b&gt;&lt;/font&gt;&lt;/div&gt;" style="rounded=0;whiteSpace=wrap;html=1;align=right;" vertex="1" parent="1">
          <mxGeometry x="640" y="1690" width="120" height="60" as="geometry" />
        </mxCell>
        <mxCell id="qEKob0JS5A_DqUoURSJI-23" value="" style="rounded=0;whiteSpace=wrap;html=1;" vertex="1" parent="1">
          <mxGeometry x="800" y="1930" width="900" height="224" as="geometry" />
        </mxCell>
        <mxCell id="qEKob0JS5A_DqUoURSJI-24" value="&lt;h1 style=&quot;margin-top: 0px;&quot;&gt;&lt;font style=&quot;font-size: 26px;&quot;&gt;FORMA1ng&lt;/font&gt;&lt;/h1&gt;&lt;div&gt;&lt;br&gt;&lt;/div&gt;&lt;p style=&quot;font-size: 15px;&quot;&gt;L&lt;font style=&quot;font-size: 15px;&quot;&gt;orem ipsum dolor sit amet, consectetur adipisicing elit, sed do eiusmod tempor incididunt ut labore et dolore magna aliqua.&lt;/font&gt;&lt;/p&gt;&lt;p style=&quot;font-size: 15px;&quot;&gt;&lt;font style=&quot;font-size: 15px;&quot;&gt;Lorem ipsum dolor sit amet, consectetur adipisicing elit, sed do eiusmod tempor incididunt ut labore et dolore magna aliqua.&lt;/font&gt;&lt;/p&gt;&lt;p style=&quot;font-size: 15px;&quot;&gt;&lt;font style=&quot;font-size: 15px;&quot;&gt;Lorem ipsum dolor sit amet, consectetur adipisicing elit, sed do eiusmod tempor incididunt ut labore et dolore magna aliqua&lt;/font&gt;.&lt;/p&gt;&lt;p&gt;&lt;/p&gt;&lt;p&gt;&lt;/p&gt;" style="text;html=1;whiteSpace=wrap;overflow=hidden;rounded=0;" vertex="1" parent="1">
          <mxGeometry x="820" y="1940" width="850" height="204" as="geometry" />
        </mxCell>
        <mxCell id="qEKob0JS5A_DqUoURSJI-25" value="&lt;div style=&quot;font-size: 22px;&quot; align=&quot;right&quot;&gt;&lt;font size=&quot;1&quot;&gt;&lt;b style=&quot;font-size: 26px;&quot;&gt;YEAR&lt;/b&gt;&lt;/font&gt;&lt;/div&gt;" style="rounded=0;whiteSpace=wrap;html=1;align=right;" vertex="1" parent="1">
          <mxGeometry x="640" y="1930" width="120" height="60" as="geometry" />
        </mxCell>
        <mxCell id="qEKob0JS5A_DqUoURSJI-26" value="" style="rounded=0;whiteSpace=wrap;html=1;" vertex="1" parent="1">
          <mxGeometry x="800" y="2170" width="900" height="224" as="geometry" />
        </mxCell>
        <mxCell id="qEKob0JS5A_DqUoURSJI-27" value="&lt;h1 style=&quot;margin-top: 0px;&quot;&gt;&lt;font style=&quot;font-size: 26px;&quot;&gt;FORMA1ng&lt;/font&gt;&lt;/h1&gt;&lt;div&gt;&lt;br&gt;&lt;/div&gt;&lt;p style=&quot;font-size: 15px;&quot;&gt;L&lt;font style=&quot;font-size: 15px;&quot;&gt;orem ipsum dolor sit amet, consectetur adipisicing elit, sed do eiusmod tempor incididunt ut labore et dolore magna aliqua.&lt;/font&gt;&lt;/p&gt;&lt;p style=&quot;font-size: 15px;&quot;&gt;&lt;font style=&quot;font-size: 15px;&quot;&gt;Lorem ipsum dolor sit amet, consectetur adipisicing elit, sed do eiusmod tempor incididunt ut labore et dolore magna aliqua.&lt;/font&gt;&lt;/p&gt;&lt;p style=&quot;font-size: 15px;&quot;&gt;&lt;font style=&quot;font-size: 15px;&quot;&gt;Lorem ipsum dolor sit amet, consectetur adipisicing elit, sed do eiusmod tempor incididunt ut labore et dolore magna aliqua&lt;/font&gt;.&lt;/p&gt;&lt;p&gt;&lt;/p&gt;&lt;p&gt;&lt;/p&gt;" style="text;html=1;whiteSpace=wrap;overflow=hidden;rounded=0;" vertex="1" parent="1">
          <mxGeometry x="820" y="2180" width="850" height="204" as="geometry" />
        </mxCell>
        <mxCell id="qEKob0JS5A_DqUoURSJI-28" value="&lt;div style=&quot;font-size: 22px;&quot; align=&quot;right&quot;&gt;&lt;font size=&quot;1&quot;&gt;&lt;b style=&quot;font-size: 26px;&quot;&gt;YEAR&lt;/b&gt;&lt;/font&gt;&lt;/div&gt;" style="rounded=0;whiteSpace=wrap;html=1;align=right;" vertex="1" parent="1">
          <mxGeometry x="640" y="2170" width="120" height="60" as="geometry" />
        </mxCell>
        <mxCell id="qEKob0JS5A_DqUoURSJI-29" value="EXP" style="text;html=1;align=right;verticalAlign=middle;whiteSpace=wrap;rounded=0;fontStyle=1;horizontal=1;fontSize=50;fillColor=#f5f5f5;fontColor=#333333;strokeColor=#666666;" vertex="1" parent="1">
          <mxGeometry x="368" y="2613" width="430" height="30" as="geometry" />
        </mxCell>
        <mxCell id="qEKob0JS5A_DqUoURSJI-30" value="" style="rounded=0;whiteSpace=wrap;html=1;" vertex="1" parent="1">
          <mxGeometry x="800.33" y="2729" width="900" height="224" as="geometry" />
        </mxCell>
        <mxCell id="qEKob0JS5A_DqUoURSJI-31" value="&lt;h1 style=&quot;margin-top: 0px;&quot;&gt;JOB&lt;br&gt;&lt;/h1&gt;&lt;div&gt;&lt;br&gt;&lt;/div&gt;&lt;p style=&quot;font-size: 15px;&quot;&gt;L&lt;font style=&quot;font-size: 15px;&quot;&gt;orem ipsum dolor sit amet, consectetur adipisicing elit, sed do eiusmod tempor incididunt ut labore et dolore magna aliqua.&lt;/font&gt;&lt;/p&gt;&lt;p style=&quot;font-size: 15px;&quot;&gt;&lt;font style=&quot;font-size: 15px;&quot;&gt;Lorem ipsum dolor sit amet, consectetur adipisicing elit, sed do eiusmod tempor incididunt ut labore et dolore magna aliqua.&lt;/font&gt;&lt;/p&gt;&lt;p style=&quot;font-size: 15px;&quot;&gt;&lt;font style=&quot;font-size: 15px;&quot;&gt;Lorem ipsum dolor sit amet, consectetur adipisicing elit, sed do eiusmod tempor incididunt ut labore et dolore magna aliqua&lt;/font&gt;.&lt;/p&gt;&lt;p&gt;&lt;/p&gt;&lt;p&gt;&lt;/p&gt;" style="text;html=1;whiteSpace=wrap;overflow=hidden;rounded=0;" vertex="1" parent="1">
          <mxGeometry x="820.33" y="2739" width="850" height="204" as="geometry" />
        </mxCell>
        <mxCell id="qEKob0JS5A_DqUoURSJI-32" value="&lt;div style=&quot;font-size: 22px;&quot; align=&quot;right&quot;&gt;&lt;font size=&quot;1&quot;&gt;&lt;b style=&quot;font-size: 26px;&quot;&gt;YEAR&lt;/b&gt;&lt;/font&gt;&lt;/div&gt;" style="rounded=0;whiteSpace=wrap;html=1;align=right;" vertex="1" parent="1">
          <mxGeometry x="640.33" y="2729" width="120" height="60" as="geometry" />
        </mxCell>
        <mxCell id="qEKob0JS5A_DqUoURSJI-45" value="" style="endArrow=none;html=1;rounded=0;entryX=1;entryY=0;entryDx=0;entryDy=0;" edge="1" parent="1" target="qEKob0JS5A_DqUoURSJI-14">
          <mxGeometry width="50" height="50" relative="1" as="geometry">
            <mxPoint x="1290" y="940" as="sourcePoint" />
            <mxPoint x="1110" y="900" as="targetPoint" />
          </mxGeometry>
        </mxCell>
        <mxCell id="qEKob0JS5A_DqUoURSJI-46" value="" style="endArrow=none;html=1;rounded=0;entryX=0;entryY=0;entryDx=0;entryDy=0;exitX=1;exitY=0;exitDx=0;exitDy=0;" edge="1" parent="1" source="qEKob0JS5A_DqUoURSJI-6" target="qEKob0JS5A_DqUoURSJI-14">
          <mxGeometry width="50" height="50" relative="1" as="geometry">
            <mxPoint x="1060" y="950" as="sourcePoint" />
            <mxPoint x="1110" y="900" as="targetPoint" />
          </mxGeometry>
        </mxCell>
        <mxCell id="qEKob0JS5A_DqUoURSJI-48" value="" style="endArrow=none;html=1;rounded=0;entryX=1;entryY=0;entryDx=0;entryDy=0;" edge="1" parent="1" target="qEKob0JS5A_DqUoURSJI-3">
          <mxGeometry width="50" height="50" relative="1" as="geometry">
            <mxPoint x="570" y="600" as="sourcePoint" />
            <mxPoint x="1110" y="850" as="targetPoint" />
          </mxGeometry>
        </mxCell>
        <mxCell id="qEKob0JS5A_DqUoURSJI-49" value="" style="endArrow=none;html=1;rounded=0;entryX=0;entryY=0;entryDx=0;entryDy=0;exitX=1;exitY=1;exitDx=0;exitDy=0;" edge="1" parent="1" source="qEKob0JS5A_DqUoURSJI-3" target="qEKob0JS5A_DqUoURSJI-3">
          <mxGeometry width="50" height="50" relative="1" as="geometry">
            <mxPoint x="1060" y="900" as="sourcePoint" />
            <mxPoint x="1110" y="850" as="targetPoint" />
          </mxGeometry>
        </mxCell>
        <mxCell id="qEKob0JS5A_DqUoURSJI-50" value="" style="endArrow=none;html=1;rounded=0;entryX=1;entryY=0;entryDx=0;entryDy=0;" edge="1" parent="1">
          <mxGeometry width="50" height="50" relative="1" as="geometry">
            <mxPoint x="568" y="688" as="sourcePoint" />
            <mxPoint x="638" y="615" as="targetPoint" />
          </mxGeometry>
        </mxCell>
        <mxCell id="qEKob0JS5A_DqUoURSJI-51" value="" style="endArrow=none;html=1;rounded=0;entryX=0;entryY=0;entryDx=0;entryDy=0;exitX=1;exitY=1;exitDx=0;exitDy=0;" edge="1" parent="1">
          <mxGeometry width="50" height="50" relative="1" as="geometry">
            <mxPoint x="638" y="685" as="sourcePoint" />
            <mxPoint x="568" y="615" as="targetPoint" />
          </mxGeometry>
        </mxCell>
        <mxCell id="qEKob0JS5A_DqUoURSJI-52" value="" style="endArrow=none;html=1;rounded=0;entryX=1;entryY=0;entryDx=0;entryDy=0;" edge="1" parent="1">
          <mxGeometry width="50" height="50" relative="1" as="geometry">
            <mxPoint x="569" y="780" as="sourcePoint" />
            <mxPoint x="639" y="707" as="targetPoint" />
          </mxGeometry>
        </mxCell>
        <mxCell id="qEKob0JS5A_DqUoURSJI-53" value="" style="endArrow=none;html=1;rounded=0;entryX=0;entryY=0;entryDx=0;entryDy=0;exitX=1;exitY=1;exitDx=0;exitDy=0;" edge="1" parent="1">
          <mxGeometry width="50" height="50" relative="1" as="geometry">
            <mxPoint x="639" y="777" as="sourcePoint" />
            <mxPoint x="569" y="707" as="targetPoint" />
          </mxGeometry>
        </mxCell>
        <mxCell id="qEKob0JS5A_DqUoURSJI-54" value="SKILLS" style="text;html=1;align=right;verticalAlign=middle;whiteSpace=wrap;rounded=0;fontStyle=1;horizontal=1;fontSize=50;fillColor=#f5f5f5;fontColor=#333333;strokeColor=#666666;" vertex="1" parent="1">
          <mxGeometry x="360" y="3160" width="430" height="30" as="geometry" />
        </mxCell>
        <mxCell id="qEKob0JS5A_DqUoURSJI-55" value="&lt;div&gt;utis&lt;/div&gt;&lt;div&gt;icons turn to text on hover&lt;br&gt;&lt;/div&gt;" style="rounded=0;whiteSpace=wrap;html=1;align=left;" vertex="1" parent="1">
          <mxGeometry x="280.84" y="3359" width="1930" height="181" as="geometry" />
        </mxCell>
        <mxCell id="qEKob0JS5A_DqUoURSJI-56" value="" style="rounded=0;whiteSpace=wrap;html=1;fillColor=#ffe6cc;strokeColor=#d79b00;align=left;" vertex="1" parent="1">
          <mxGeometry x="608" y="3380" width="95" height="90" as="geometry" />
        </mxCell>
        <mxCell id="qEKob0JS5A_DqUoURSJI-58" value="" style="endArrow=none;html=1;rounded=0;entryX=0;entryY=0;entryDx=0;entryDy=0;exitX=1;exitY=1;exitDx=0;exitDy=0;" edge="1" parent="1" source="qEKob0JS5A_DqUoURSJI-56" target="qEKob0JS5A_DqUoURSJI-56">
          <mxGeometry width="50" height="50" relative="1" as="geometry">
            <mxPoint x="1060" y="3380" as="sourcePoint" />
            <mxPoint x="1110" y="3330" as="targetPoint" />
          </mxGeometry>
        </mxCell>
        <mxCell id="qEKob0JS5A_DqUoURSJI-59" value="" style="endArrow=none;html=1;rounded=0;exitX=0;exitY=1;exitDx=0;exitDy=0;entryX=1;entryY=0;entryDx=0;entryDy=0;" edge="1" parent="1" source="qEKob0JS5A_DqUoURSJI-56" target="qEKob0JS5A_DqUoURSJI-56">
          <mxGeometry width="50" height="50" relative="1" as="geometry">
            <mxPoint x="1060" y="3380" as="sourcePoint" />
            <mxPoint x="1110" y="3330" as="targetPoint" />
          </mxGeometry>
        </mxCell>
        <mxCell id="qEKob0JS5A_DqUoURSJI-60" value="" style="rounded=0;whiteSpace=wrap;html=1;fillColor=#ffe6cc;strokeColor=#d79b00;align=left;" vertex="1" parent="1">
          <mxGeometry x="725" y="3379" width="95" height="90" as="geometry" />
        </mxCell>
        <mxCell id="qEKob0JS5A_DqUoURSJI-61" value="" style="endArrow=none;html=1;rounded=0;entryX=0;entryY=0;entryDx=0;entryDy=0;exitX=1;exitY=1;exitDx=0;exitDy=0;" edge="1" parent="1" source="qEKob0JS5A_DqUoURSJI-60" target="qEKob0JS5A_DqUoURSJI-60">
          <mxGeometry width="50" height="50" relative="1" as="geometry">
            <mxPoint x="1177" y="3379" as="sourcePoint" />
            <mxPoint x="1227" y="3329" as="targetPoint" />
          </mxGeometry>
        </mxCell>
        <mxCell id="qEKob0JS5A_DqUoURSJI-62" value="" style="endArrow=none;html=1;rounded=0;exitX=0;exitY=1;exitDx=0;exitDy=0;entryX=1;entryY=0;entryDx=0;entryDy=0;" edge="1" parent="1" source="qEKob0JS5A_DqUoURSJI-60" target="qEKob0JS5A_DqUoURSJI-60">
          <mxGeometry width="50" height="50" relative="1" as="geometry">
            <mxPoint x="1177" y="3379" as="sourcePoint" />
            <mxPoint x="1227" y="3329" as="targetPoint" />
          </mxGeometry>
        </mxCell>
        <mxCell id="qEKob0JS5A_DqUoURSJI-63" value="" style="rounded=0;whiteSpace=wrap;html=1;fillColor=#ffe6cc;strokeColor=#d79b00;align=left;" vertex="1" parent="1">
          <mxGeometry x="840" y="3379" width="95" height="90" as="geometry" />
        </mxCell>
        <mxCell id="qEKob0JS5A_DqUoURSJI-64" value="" style="endArrow=none;html=1;rounded=0;entryX=0;entryY=0;entryDx=0;entryDy=0;exitX=1;exitY=1;exitDx=0;exitDy=0;" edge="1" parent="1" source="qEKob0JS5A_DqUoURSJI-63" target="qEKob0JS5A_DqUoURSJI-63">
          <mxGeometry width="50" height="50" relative="1" as="geometry">
            <mxPoint x="1292" y="3379" as="sourcePoint" />
            <mxPoint x="1342" y="3329" as="targetPoint" />
          </mxGeometry>
        </mxCell>
        <mxCell id="qEKob0JS5A_DqUoURSJI-65" value="" style="endArrow=none;html=1;rounded=0;exitX=0;exitY=1;exitDx=0;exitDy=0;entryX=1;entryY=0;entryDx=0;entryDy=0;" edge="1" parent="1" source="qEKob0JS5A_DqUoURSJI-63" target="qEKob0JS5A_DqUoURSJI-63">
          <mxGeometry width="50" height="50" relative="1" as="geometry">
            <mxPoint x="1292" y="3379" as="sourcePoint" />
            <mxPoint x="1342" y="3329" as="targetPoint" />
          </mxGeometry>
        </mxCell>
        <mxCell id="qEKob0JS5A_DqUoURSJI-66" value="" style="rounded=0;whiteSpace=wrap;html=1;fillColor=#ffe6cc;strokeColor=#d79b00;align=left;" vertex="1" parent="1">
          <mxGeometry x="950" y="3380" width="95" height="90" as="geometry" />
        </mxCell>
        <mxCell id="qEKob0JS5A_DqUoURSJI-67" value="" style="endArrow=none;html=1;rounded=0;entryX=0;entryY=0;entryDx=0;entryDy=0;exitX=1;exitY=1;exitDx=0;exitDy=0;" edge="1" parent="1" source="qEKob0JS5A_DqUoURSJI-66" target="qEKob0JS5A_DqUoURSJI-66">
          <mxGeometry width="50" height="50" relative="1" as="geometry">
            <mxPoint x="1402" y="3380" as="sourcePoint" />
            <mxPoint x="1452" y="3330" as="targetPoint" />
          </mxGeometry>
        </mxCell>
        <mxCell id="qEKob0JS5A_DqUoURSJI-68" value="" style="endArrow=none;html=1;rounded=0;exitX=0;exitY=1;exitDx=0;exitDy=0;entryX=1;entryY=0;entryDx=0;entryDy=0;" edge="1" parent="1" source="qEKob0JS5A_DqUoURSJI-66" target="qEKob0JS5A_DqUoURSJI-66">
          <mxGeometry width="50" height="50" relative="1" as="geometry">
            <mxPoint x="1402" y="3380" as="sourcePoint" />
            <mxPoint x="1452" y="3330" as="targetPoint" />
          </mxGeometry>
        </mxCell>
        <mxCell id="qEKob0JS5A_DqUoURSJI-69" value="GIT" style="rounded=0;whiteSpace=wrap;html=1;fillColor=#ffe6cc;strokeColor=#d79b00;" vertex="1" parent="1">
          <mxGeometry x="608" y="3480" width="92" height="30" as="geometry" />
        </mxCell>
        <mxCell id="qEKob0JS5A_DqUoURSJI-70" value="HTML" style="rounded=0;whiteSpace=wrap;html=1;fillColor=#ffe6cc;strokeColor=#d79b00;" vertex="1" parent="1">
          <mxGeometry x="728.33" y="3480" width="92" height="30" as="geometry" />
        </mxCell>
        <mxCell id="qEKob0JS5A_DqUoURSJI-71" value="CSS" style="rounded=0;whiteSpace=wrap;html=1;fillColor=#ffe6cc;strokeColor=#d79b00;" vertex="1" parent="1">
          <mxGeometry x="840" y="3480" width="92" height="30" as="geometry" />
        </mxCell>
        <mxCell id="qEKob0JS5A_DqUoURSJI-72" value="JS" style="rounded=0;whiteSpace=wrap;html=1;fillColor=#ffe6cc;strokeColor=#d79b00;" vertex="1" parent="1">
          <mxGeometry x="951.5" y="3480" width="92" height="30" as="geometry" />
        </mxCell>
        <mxCell id="qEKob0JS5A_DqUoURSJI-73" value="" style="rounded=0;whiteSpace=wrap;html=1;fillColor=#ffe6cc;strokeColor=#d79b00;align=left;" vertex="1" parent="1">
          <mxGeometry x="1350" y="3381" width="95" height="90" as="geometry" />
        </mxCell>
        <mxCell id="qEKob0JS5A_DqUoURSJI-74" value="" style="endArrow=none;html=1;rounded=0;entryX=0;entryY=0;entryDx=0;entryDy=0;exitX=1;exitY=1;exitDx=0;exitDy=0;" edge="1" parent="1" source="qEKob0JS5A_DqUoURSJI-73" target="qEKob0JS5A_DqUoURSJI-73">
          <mxGeometry width="50" height="50" relative="1" as="geometry">
            <mxPoint x="1802" y="3381" as="sourcePoint" />
            <mxPoint x="1852" y="3331" as="targetPoint" />
          </mxGeometry>
        </mxCell>
        <mxCell id="qEKob0JS5A_DqUoURSJI-75" value="" style="endArrow=none;html=1;rounded=0;exitX=0;exitY=1;exitDx=0;exitDy=0;entryX=1;entryY=0;entryDx=0;entryDy=0;" edge="1" parent="1" source="qEKob0JS5A_DqUoURSJI-73" target="qEKob0JS5A_DqUoURSJI-73">
          <mxGeometry width="50" height="50" relative="1" as="geometry">
            <mxPoint x="1802" y="3381" as="sourcePoint" />
            <mxPoint x="1852" y="3331" as="targetPoint" />
          </mxGeometry>
        </mxCell>
        <mxCell id="qEKob0JS5A_DqUoURSJI-76" value="" style="rounded=0;whiteSpace=wrap;html=1;fillColor=#ffe6cc;strokeColor=#d79b00;align=left;" vertex="1" parent="1">
          <mxGeometry x="1467" y="3380" width="95" height="90" as="geometry" />
        </mxCell>
        <mxCell id="qEKob0JS5A_DqUoURSJI-77" value="" style="endArrow=none;html=1;rounded=0;entryX=0;entryY=0;entryDx=0;entryDy=0;exitX=1;exitY=1;exitDx=0;exitDy=0;" edge="1" parent="1" source="qEKob0JS5A_DqUoURSJI-76" target="qEKob0JS5A_DqUoURSJI-76">
          <mxGeometry width="50" height="50" relative="1" as="geometry">
            <mxPoint x="1919" y="3380" as="sourcePoint" />
            <mxPoint x="1969" y="3330" as="targetPoint" />
          </mxGeometry>
        </mxCell>
        <mxCell id="qEKob0JS5A_DqUoURSJI-78" value="" style="endArrow=none;html=1;rounded=0;exitX=0;exitY=1;exitDx=0;exitDy=0;entryX=1;entryY=0;entryDx=0;entryDy=0;" edge="1" parent="1" source="qEKob0JS5A_DqUoURSJI-76" target="qEKob0JS5A_DqUoURSJI-76">
          <mxGeometry width="50" height="50" relative="1" as="geometry">
            <mxPoint x="1919" y="3380" as="sourcePoint" />
            <mxPoint x="1969" y="3330" as="targetPoint" />
          </mxGeometry>
        </mxCell>
        <mxCell id="qEKob0JS5A_DqUoURSJI-79" value="" style="rounded=0;whiteSpace=wrap;html=1;fillColor=#ffe6cc;strokeColor=#d79b00;align=left;" vertex="1" parent="1">
          <mxGeometry x="1582" y="3380" width="95" height="90" as="geometry" />
        </mxCell>
        <mxCell id="qEKob0JS5A_DqUoURSJI-80" value="" style="endArrow=none;html=1;rounded=0;entryX=0;entryY=0;entryDx=0;entryDy=0;exitX=1;exitY=1;exitDx=0;exitDy=0;" edge="1" parent="1" source="qEKob0JS5A_DqUoURSJI-79" target="qEKob0JS5A_DqUoURSJI-79">
          <mxGeometry width="50" height="50" relative="1" as="geometry">
            <mxPoint x="2034" y="3380" as="sourcePoint" />
            <mxPoint x="2084" y="3330" as="targetPoint" />
          </mxGeometry>
        </mxCell>
        <mxCell id="qEKob0JS5A_DqUoURSJI-81" value="" style="endArrow=none;html=1;rounded=0;exitX=0;exitY=1;exitDx=0;exitDy=0;entryX=1;entryY=0;entryDx=0;entryDy=0;" edge="1" parent="1" source="qEKob0JS5A_DqUoURSJI-79" target="qEKob0JS5A_DqUoURSJI-79">
          <mxGeometry width="50" height="50" relative="1" as="geometry">
            <mxPoint x="2034" y="3380" as="sourcePoint" />
            <mxPoint x="2084" y="3330" as="targetPoint" />
          </mxGeometry>
        </mxCell>
        <mxCell id="qEKob0JS5A_DqUoURSJI-82" value="" style="rounded=0;whiteSpace=wrap;html=1;fillColor=#ffe6cc;strokeColor=#d79b00;align=left;" vertex="1" parent="1">
          <mxGeometry x="1692" y="3381" width="95" height="90" as="geometry" />
        </mxCell>
        <mxCell id="qEKob0JS5A_DqUoURSJI-83" value="" style="endArrow=none;html=1;rounded=0;entryX=0;entryY=0;entryDx=0;entryDy=0;exitX=1;exitY=1;exitDx=0;exitDy=0;" edge="1" parent="1" source="qEKob0JS5A_DqUoURSJI-82" target="qEKob0JS5A_DqUoURSJI-82">
          <mxGeometry width="50" height="50" relative="1" as="geometry">
            <mxPoint x="2144" y="3381" as="sourcePoint" />
            <mxPoint x="2194" y="3331" as="targetPoint" />
          </mxGeometry>
        </mxCell>
        <mxCell id="qEKob0JS5A_DqUoURSJI-84" value="" style="endArrow=none;html=1;rounded=0;exitX=0;exitY=1;exitDx=0;exitDy=0;entryX=1;entryY=0;entryDx=0;entryDy=0;" edge="1" parent="1" source="qEKob0JS5A_DqUoURSJI-82" target="qEKob0JS5A_DqUoURSJI-82">
          <mxGeometry width="50" height="50" relative="1" as="geometry">
            <mxPoint x="2144" y="3381" as="sourcePoint" />
            <mxPoint x="2194" y="3331" as="targetPoint" />
          </mxGeometry>
        </mxCell>
        <mxCell id="qEKob0JS5A_DqUoURSJI-85" value="GITHUB" style="rounded=0;whiteSpace=wrap;html=1;fillColor=#ffe6cc;strokeColor=#d79b00;" vertex="1" parent="1">
          <mxGeometry x="1350" y="3481" width="92" height="30" as="geometry" />
        </mxCell>
        <mxCell id="qEKob0JS5A_DqUoURSJI-86" value="VSCODE" style="rounded=0;whiteSpace=wrap;html=1;fillColor=#ffe6cc;strokeColor=#d79b00;" vertex="1" parent="1">
          <mxGeometry x="1470.33" y="3481" width="92" height="30" as="geometry" />
        </mxCell>
        <mxCell id="qEKob0JS5A_DqUoURSJI-87" value="ADMAYA" style="rounded=0;whiteSpace=wrap;html=1;fillColor=#ffe6cc;strokeColor=#d79b00;" vertex="1" parent="1">
          <mxGeometry x="1582" y="3481" width="92" height="30" as="geometry" />
        </mxCell>
        <mxCell id="qEKob0JS5A_DqUoURSJI-88" value="ADOBESUITE" style="rounded=0;whiteSpace=wrap;html=1;fillColor=#ffe6cc;strokeColor=#d79b00;" vertex="1" parent="1">
          <mxGeometry x="1693.5" y="3481" width="92" height="30" as="geometry" />
        </mxCell>
        <mxCell id="qEKob0JS5A_DqUoURSJI-89" value="I code with" style="text;html=1;align=left;verticalAlign=middle;whiteSpace=wrap;rounded=0;rotation=-90;fontStyle=1;fontSize=18;" vertex="1" parent="1">
          <mxGeometry x="502" y="3431" width="120" height="30" as="geometry" />
        </mxCell>
        <mxCell id="qEKob0JS5A_DqUoURSJI-90" value="I use" style="text;html=1;align=left;verticalAlign=middle;whiteSpace=wrap;rounded=0;rotation=-90;fontStyle=1;fontSize=18;" vertex="1" parent="1">
          <mxGeometry x="1236.67" y="3420" width="120" height="30" as="geometry" />
        </mxCell>
        <mxCell id="qEKob0JS5A_DqUoURSJI-92" value="" style="rounded=0;whiteSpace=wrap;html=1;" vertex="1" parent="1">
          <mxGeometry x="550" y="3600" width="570" height="540" as="geometry" />
        </mxCell>
        <mxCell id="qEKob0JS5A_DqUoURSJI-91" value="&lt;h1 style=&quot;margin-top: 0px;&quot;&gt;HRDSKILLS&lt;/h1&gt;&lt;p style=&quot;font-size: 15px;&quot;&gt;&lt;font style=&quot;font-size: 15px;&quot;&gt;Lorem ipsum dolor sit amet, consectetur adipisicing elit, sed do eiusmod tempor incididunt ut labore et dolore magna aliqua.&lt;/font&gt;&lt;/p&gt;&lt;p style=&quot;font-size: 15px;&quot;&gt;&lt;font style=&quot;font-size: 15px;&quot;&gt;Lorem ipsum dolor sit amet, consectetur adipisicing elit, sed do eiusmod tempor incididunt ut labore et dolore magna aliqua.&lt;/font&gt;&lt;/p&gt;&lt;p style=&quot;font-size: 15px;&quot;&gt;&lt;font style=&quot;font-size: 15px;&quot;&gt;Lorem ipsum dolor sit amet, consectetur adipisicing elit, sed do eiusmod tempor incididunt ut labore et dolore magna aliqua.&lt;/font&gt;&lt;/p&gt;&lt;p style=&quot;font-size: 15px;&quot;&gt;&lt;font style=&quot;font-size: 15px;&quot;&gt;Lorem ipsum dolor sit amet,&lt;/font&gt;&lt;/p&gt;&lt;p style=&quot;font-size: 15px;&quot;&gt;&lt;font style=&quot;font-size: 15px;&quot;&gt;Lorem ipsum dolor sit amet,&lt;/font&gt;&lt;/p&gt;&lt;p&gt;&lt;/p&gt;&lt;p&gt;&lt;/p&gt;&lt;p&gt;&lt;/p&gt;&lt;p&gt;&lt;/p&gt;&lt;p&gt;&lt;/p&gt;" style="text;html=1;whiteSpace=wrap;overflow=hidden;rounded=0;" vertex="1" parent="1">
          <mxGeometry x="608" y="3669" width="432" height="380" as="geometry" />
        </mxCell>
        <mxCell id="qEKob0JS5A_DqUoURSJI-93" value="" style="rounded=0;whiteSpace=wrap;html=1;" vertex="1" parent="1">
          <mxGeometry x="1290" y="3600" width="570" height="540" as="geometry" />
        </mxCell>
        <mxCell id="qEKob0JS5A_DqUoURSJI-94" value="&lt;h1 style=&quot;margin-top: 0px; font-size: 24px;&quot;&gt;SOFTSKILLS&lt;font style=&quot;font-size: 15px;&quot;&gt;&lt;br&gt;&lt;/font&gt;&lt;/h1&gt;&lt;p style=&quot;font-size: 15px;&quot;&gt;&lt;font style=&quot;font-size: 15px;&quot;&gt;Lorem ipsum dolor sit amet, consectetur adipisicing elit, sed do eiusmod tempor incididunt ut labore et dolore magna aliqua.&lt;/font&gt;&lt;/p&gt;&lt;p style=&quot;font-size: 15px;&quot;&gt;&lt;font style=&quot;font-size: 15px;&quot;&gt;Lorem ipsum dolor sit amet, consectetur adipisicing elit, sed do eiusmod tempor incididunt ut labore et dolore magna aliqua.&lt;/font&gt;&lt;/p&gt;&lt;p style=&quot;font-size: 15px;&quot;&gt;&lt;font style=&quot;font-size: 15px;&quot;&gt;Lorem ipsum dolor sit amet, consectetur adipisicing elit, sed do eiusmod tempor incididunt ut labore et dolore magna aliqua.&lt;/font&gt;&lt;/p&gt;&lt;p style=&quot;font-size: 15px;&quot;&gt;&lt;font style=&quot;font-size: 15px;&quot;&gt;Lorem ipsum dolor sit amet, consectetu.&lt;/font&gt;&lt;/p&gt;&lt;p&gt;&lt;/p&gt;&lt;p&gt;&lt;/p&gt;&lt;p&gt;&lt;/p&gt;" style="text;html=1;whiteSpace=wrap;overflow=hidden;rounded=0;" vertex="1" parent="1">
          <mxGeometry x="1348" y="3669" width="432" height="380" as="geometry" />
        </mxCell>
        <mxCell id="qEKob0JS5A_DqUoURSJI-95" value="STICKYSIDENAV" style="rounded=0;whiteSpace=wrap;html=1;" vertex="1" parent="1">
          <mxGeometry x="2030" y="1440" width="120" height="590" as="geometry" />
        </mxCell>
        <mxCell id="qEKob0JS5A_DqUoURSJI-96" value="HOME" style="text;html=1;align=center;verticalAlign=middle;whiteSpace=wrap;rounded=0;fillColor=#fff2cc;strokeColor=#d6b656;fontSize=15;fontStyle=1" vertex="1" parent="1">
          <mxGeometry x="2060" y="1476" width="60" height="30" as="geometry" />
        </mxCell>
        <mxCell id="qEKob0JS5A_DqUoURSJI-97" value="FORM" style="text;html=1;align=center;verticalAlign=middle;whiteSpace=wrap;rounded=0;fillColor=#fff2cc;strokeColor=#d6b656;fontSize=15;fontStyle=1" vertex="1" parent="1">
          <mxGeometry x="2060" y="1543" width="60" height="30" as="geometry" />
        </mxCell>
        <mxCell id="qEKob0JS5A_DqUoURSJI-98" value="EXP" style="text;html=1;align=center;verticalAlign=middle;whiteSpace=wrap;rounded=0;fillColor=#fff2cc;strokeColor=#d6b656;fontSize=15;fontStyle=1" vertex="1" parent="1">
          <mxGeometry x="2060" y="1589" width="60" height="30" as="geometry" />
        </mxCell>
        <mxCell id="qEKob0JS5A_DqUoURSJI-99" value="SKI" style="text;html=1;align=center;verticalAlign=middle;whiteSpace=wrap;rounded=0;fillColor=#fff2cc;strokeColor=#d6b656;fontSize=15;fontStyle=1" vertex="1" parent="1">
          <mxGeometry x="2060" y="1634" width="60" height="30" as="geometry" />
        </mxCell>
        <mxCell id="qEKob0JS5A_DqUoURSJI-100" value="HOB" style="text;html=1;align=center;verticalAlign=middle;whiteSpace=wrap;rounded=0;fillColor=#fff2cc;strokeColor=#d6b656;fontSize=15;fontStyle=1" vertex="1" parent="1">
          <mxGeometry x="2060" y="1680" width="60" height="30" as="geometry" />
        </mxCell>
        <mxCell id="qEKob0JS5A_DqUoURSJI-101" value="CONT" style="text;html=1;align=center;verticalAlign=middle;whiteSpace=wrap;rounded=0;fillColor=#fff2cc;strokeColor=#d6b656;fontSize=15;fontStyle=1" vertex="1" parent="1">
          <mxGeometry x="2060" y="1770" width="60" height="30" as="geometry" />
        </mxCell>
        <mxCell id="qEKob0JS5A_DqUoURSJI-109" value="" style="rounded=0;whiteSpace=wrap;html=1;" vertex="1" parent="1">
          <mxGeometry x="429" y="4527" width="418" height="160" as="geometry" />
        </mxCell>
        <mxCell id="qEKob0JS5A_DqUoURSJI-102" value="HOB/MISC" style="text;html=1;align=right;verticalAlign=middle;whiteSpace=wrap;rounded=0;fontStyle=1;horizontal=1;fontSize=50;fillColor=#f5f5f5;fontColor=#333333;strokeColor=#666666;" vertex="1" parent="1">
          <mxGeometry x="360" y="4340" width="430" height="30" as="geometry" />
        </mxCell>
        <mxCell id="qEKob0JS5A_DqUoURSJI-103" value="" style="rounded=0;whiteSpace=wrap;html=1;fillColor=#ffe6cc;strokeColor=#d79b00;" vertex="1" parent="1">
          <mxGeometry x="447" y="4547" width="120" height="110" as="geometry" />
        </mxCell>
        <mxCell id="qEKob0JS5A_DqUoURSJI-104" value="" style="endArrow=none;html=1;rounded=0;exitX=0;exitY=1;exitDx=0;exitDy=0;entryX=1;entryY=0;entryDx=0;entryDy=0;" edge="1" parent="1" source="qEKob0JS5A_DqUoURSJI-103" target="qEKob0JS5A_DqUoURSJI-103">
          <mxGeometry width="50" height="50" relative="1" as="geometry">
            <mxPoint x="677" y="4497" as="sourcePoint" />
            <mxPoint x="727" y="4447" as="targetPoint" />
          </mxGeometry>
        </mxCell>
        <mxCell id="qEKob0JS5A_DqUoURSJI-110" value="" style="endArrow=none;html=1;rounded=0;exitX=1;exitY=1;exitDx=0;exitDy=0;entryX=0;entryY=0;entryDx=0;entryDy=0;" edge="1" parent="1" source="qEKob0JS5A_DqUoURSJI-103" target="qEKob0JS5A_DqUoURSJI-103">
          <mxGeometry width="50" height="50" relative="1" as="geometry">
            <mxPoint x="567" y="4657" as="sourcePoint" />
            <mxPoint x="457" y="4557" as="targetPoint" />
          </mxGeometry>
        </mxCell>
        <mxCell id="qEKob0JS5A_DqUoURSJI-111" value="" style="rounded=0;whiteSpace=wrap;html=1;" vertex="1" parent="1">
          <mxGeometry x="924" y="4527" width="418" height="160" as="geometry" />
        </mxCell>
        <mxCell id="qEKob0JS5A_DqUoURSJI-112" value="" style="rounded=0;whiteSpace=wrap;html=1;fillColor=#ffe6cc;strokeColor=#d79b00;" vertex="1" parent="1">
          <mxGeometry x="941" y="4547" width="120" height="110" as="geometry" />
        </mxCell>
        <mxCell id="qEKob0JS5A_DqUoURSJI-113" value="" style="endArrow=none;html=1;rounded=0;exitX=0;exitY=1;exitDx=0;exitDy=0;entryX=1;entryY=0;entryDx=0;entryDy=0;" edge="1" parent="1" source="qEKob0JS5A_DqUoURSJI-112" target="qEKob0JS5A_DqUoURSJI-112">
          <mxGeometry width="50" height="50" relative="1" as="geometry">
            <mxPoint x="1171" y="4497" as="sourcePoint" />
            <mxPoint x="1221" y="4447" as="targetPoint" />
          </mxGeometry>
        </mxCell>
        <mxCell id="qEKob0JS5A_DqUoURSJI-114" value="" style="endArrow=none;html=1;rounded=0;exitX=1;exitY=1;exitDx=0;exitDy=0;entryX=0;entryY=0;entryDx=0;entryDy=0;" edge="1" parent="1" source="qEKob0JS5A_DqUoURSJI-112" target="qEKob0JS5A_DqUoURSJI-112">
          <mxGeometry width="50" height="50" relative="1" as="geometry">
            <mxPoint x="1061" y="4657" as="sourcePoint" />
            <mxPoint x="951" y="4557" as="targetPoint" />
          </mxGeometry>
        </mxCell>
        <mxCell id="qEKob0JS5A_DqUoURSJI-115" value="" style="rounded=0;whiteSpace=wrap;html=1;" vertex="1" parent="1">
          <mxGeometry x="1419" y="4527" width="418" height="160" as="geometry" />
        </mxCell>
        <mxCell id="qEKob0JS5A_DqUoURSJI-116" value="" style="rounded=0;whiteSpace=wrap;html=1;fillColor=#ffe6cc;strokeColor=#d79b00;" vertex="1" parent="1">
          <mxGeometry x="1435" y="4547" width="120" height="110" as="geometry" />
        </mxCell>
        <mxCell id="qEKob0JS5A_DqUoURSJI-117" value="" style="endArrow=none;html=1;rounded=0;exitX=0;exitY=1;exitDx=0;exitDy=0;entryX=1;entryY=0;entryDx=0;entryDy=0;" edge="1" parent="1" source="qEKob0JS5A_DqUoURSJI-116" target="qEKob0JS5A_DqUoURSJI-116">
          <mxGeometry width="50" height="50" relative="1" as="geometry">
            <mxPoint x="1665" y="4497" as="sourcePoint" />
            <mxPoint x="1715" y="4447" as="targetPoint" />
          </mxGeometry>
        </mxCell>
        <mxCell id="qEKob0JS5A_DqUoURSJI-118" value="" style="endArrow=none;html=1;rounded=0;exitX=1;exitY=1;exitDx=0;exitDy=0;entryX=0;entryY=0;entryDx=0;entryDy=0;" edge="1" parent="1" source="qEKob0JS5A_DqUoURSJI-116" target="qEKob0JS5A_DqUoURSJI-116">
          <mxGeometry width="50" height="50" relative="1" as="geometry">
            <mxPoint x="1555" y="4657" as="sourcePoint" />
            <mxPoint x="1445" y="4557" as="targetPoint" />
          </mxGeometry>
        </mxCell>
        <mxCell id="qEKob0JS5A_DqUoURSJI-119" value="&lt;div style=&quot;font-size: 13px;&quot; align=&quot;left&quot;&gt;&lt;font style=&quot;font-size: 15px;&quot;&gt;Text&lt;/font&gt;&lt;/div&gt;&lt;div&gt;&lt;br&gt;&lt;/div&gt;&lt;div&gt;&lt;font style=&quot;font-size: 15px;&quot;&gt;Text&lt;/font&gt;&lt;font style=&quot;font-size: 15px;&quot;&gt;Text&lt;/font&gt;&lt;font style=&quot;font-size: 15px;&quot;&gt;Text&lt;/font&gt;&lt;/div&gt;&lt;div&gt;&lt;font style=&quot;font-size: 15px;&quot;&gt;&lt;br&gt;&lt;/font&gt;&lt;/div&gt;&lt;div&gt;&lt;font style=&quot;font-size: 15px;&quot;&gt;Text&lt;/font&gt;&lt;/div&gt;" style="text;html=1;align=left;verticalAlign=middle;whiteSpace=wrap;rounded=0;" vertex="1" parent="1">
          <mxGeometry x="607" y="4549" width="170" height="110" as="geometry" />
        </mxCell>
        <mxCell id="qEKob0JS5A_DqUoURSJI-120" value="&lt;div style=&quot;font-size: 13px;&quot; align=&quot;left&quot;&gt;&lt;font style=&quot;font-size: 15px;&quot;&gt;Text&lt;/font&gt;&lt;/div&gt;&lt;div&gt;&lt;br&gt;&lt;/div&gt;&lt;div&gt;&lt;font style=&quot;font-size: 15px;&quot;&gt;Text&lt;/font&gt;&lt;font style=&quot;font-size: 15px;&quot;&gt;Text&lt;/font&gt;&lt;font style=&quot;font-size: 15px;&quot;&gt;Text&lt;/font&gt;&lt;/div&gt;&lt;div&gt;&lt;font style=&quot;font-size: 15px;&quot;&gt;&lt;br&gt;&lt;/font&gt;&lt;/div&gt;" style="text;html=1;align=left;verticalAlign=middle;whiteSpace=wrap;rounded=0;" vertex="1" parent="1">
          <mxGeometry x="1092" y="4547" width="170" height="110" as="geometry" />
        </mxCell>
        <mxCell id="qEKob0JS5A_DqUoURSJI-121" value="&lt;div style=&quot;font-size: 13px;&quot; align=&quot;left&quot;&gt;&lt;font style=&quot;font-size: 15px;&quot;&gt;Text&lt;/font&gt;&lt;/div&gt;&lt;div&gt;&lt;br&gt;&lt;/div&gt;&lt;div&gt;&lt;font style=&quot;font-size: 15px;&quot;&gt;Text&lt;/font&gt;&lt;font style=&quot;font-size: 15px;&quot;&gt;Text&lt;/font&gt;&lt;font style=&quot;font-size: 15px;&quot;&gt;Text&lt;/font&gt;&lt;/div&gt;&lt;div&gt;&lt;font style=&quot;font-size: 15px;&quot;&gt;&lt;br&gt;&lt;/font&gt;&lt;/div&gt;&lt;div&gt;&lt;font style=&quot;font-size: 15px;&quot;&gt;Text&lt;/font&gt;&lt;/div&gt;" style="text;html=1;align=left;verticalAlign=middle;whiteSpace=wrap;rounded=0;" vertex="1" parent="1">
          <mxGeometry x="1587" y="4547" width="170" height="110" as="geometry" />
        </mxCell>
        <mxCell id="qEKob0JS5A_DqUoURSJI-122" value="&lt;div align=&quot;left&quot;&gt;footer&lt;/div&gt;" style="rounded=0;whiteSpace=wrap;html=1;align=left;" vertex="1" parent="1">
          <mxGeometry x="280.84" y="5110" width="1929.16" height="380" as="geometry" />
        </mxCell>
        <mxCell id="qEKob0JS5A_DqUoURSJI-123" value="&lt;h1 style=&quot;margin-top: 0px;&quot;&gt;&lt;font style=&quot;font-size: 50px;&quot;&gt;CONTACT&lt;/font&gt;&lt;/h1&gt;&lt;p&gt;Lorem ipsum dolor sit amet, consectetur adipisicing elit, sed do eiusmod tempor incididunt ut labore et dolore magna aliqua.&lt;/p&gt;" style="text;html=1;whiteSpace=wrap;overflow=hidden;rounded=0;fillColor=#f5f5f5;fontColor=#333333;strokeColor=#666666;" vertex="1" parent="1">
          <mxGeometry x="607" y="5190" width="293" height="120" as="geometry" />
        </mxCell>
        <mxCell id="qEKob0JS5A_DqUoURSJI-133" value="" style="rounded=0;whiteSpace=wrap;html=1;" vertex="1" parent="1">
          <mxGeometry x="609" y="5331" width="290" height="69" as="geometry" />
        </mxCell>
        <mxCell id="qEKob0JS5A_DqUoURSJI-134" value="linkdein" style="rounded=0;whiteSpace=wrap;html=1;fillColor=#fff2cc;strokeColor=#d6b656;" vertex="1" parent="1">
          <mxGeometry x="770" y="5330" width="70" height="70" as="geometry" />
        </mxCell>
        <mxCell id="qEKob0JS5A_DqUoURSJI-135" value="GITHUB" style="rounded=0;whiteSpace=wrap;html=1;fillColor=#fff2cc;strokeColor=#d6b656;" vertex="1" parent="1">
          <mxGeometry x="689" y="5330.5" width="70" height="70" as="geometry" />
        </mxCell>
        <mxCell id="qEKob0JS5A_DqUoURSJI-136" value="IMPR" style="rounded=0;whiteSpace=wrap;html=1;fillColor=#fff2cc;strokeColor=#d6b656;" vertex="1" parent="1">
          <mxGeometry x="608" y="5331.5" width="70" height="70" as="geometry" />
        </mxCell>
        <mxCell id="qEKob0JS5A_DqUoURSJI-137" value="" style="endArrow=none;html=1;rounded=0;entryX=1;entryY=0;entryDx=0;entryDy=0;" edge="1" parent="1" target="qEKob0JS5A_DqUoURSJI-134">
          <mxGeometry width="50" height="50" relative="1" as="geometry">
            <mxPoint x="770" y="5403" as="sourcePoint" />
            <mxPoint x="1310" y="5653" as="targetPoint" />
          </mxGeometry>
        </mxCell>
        <mxCell id="qEKob0JS5A_DqUoURSJI-138" value="" style="endArrow=none;html=1;rounded=0;entryX=0;entryY=0;entryDx=0;entryDy=0;exitX=1;exitY=1;exitDx=0;exitDy=0;" edge="1" parent="1" source="qEKob0JS5A_DqUoURSJI-134" target="qEKob0JS5A_DqUoURSJI-134">
          <mxGeometry width="50" height="50" relative="1" as="geometry">
            <mxPoint x="1260" y="5703" as="sourcePoint" />
            <mxPoint x="1310" y="5653" as="targetPoint" />
          </mxGeometry>
        </mxCell>
        <mxCell id="qEKob0JS5A_DqUoURSJI-139" value="" style="endArrow=none;html=1;rounded=0;entryX=1;entryY=0;entryDx=0;entryDy=0;" edge="1" parent="1">
          <mxGeometry width="50" height="50" relative="1" as="geometry">
            <mxPoint x="688.3299999999999" y="5401.5" as="sourcePoint" />
            <mxPoint x="758.3299999999999" y="5328.5" as="targetPoint" />
          </mxGeometry>
        </mxCell>
        <mxCell id="qEKob0JS5A_DqUoURSJI-140" value="" style="endArrow=none;html=1;rounded=0;entryX=0;entryY=0;entryDx=0;entryDy=0;exitX=1;exitY=1;exitDx=0;exitDy=0;" edge="1" parent="1">
          <mxGeometry width="50" height="50" relative="1" as="geometry">
            <mxPoint x="758.3299999999999" y="5398.5" as="sourcePoint" />
            <mxPoint x="688.3299999999999" y="5328.5" as="targetPoint" />
          </mxGeometry>
        </mxCell>
        <mxCell id="qEKob0JS5A_DqUoURSJI-141" value="" style="endArrow=none;html=1;rounded=0;entryX=1;entryY=0;entryDx=0;entryDy=0;" edge="1" parent="1">
          <mxGeometry width="50" height="50" relative="1" as="geometry">
            <mxPoint x="607" y="5404.5" as="sourcePoint" />
            <mxPoint x="677" y="5331.5" as="targetPoint" />
          </mxGeometry>
        </mxCell>
        <mxCell id="qEKob0JS5A_DqUoURSJI-142" value="" style="endArrow=none;html=1;rounded=0;entryX=0;entryY=0;entryDx=0;entryDy=0;exitX=1;exitY=1;exitDx=0;exitDy=0;" edge="1" parent="1">
          <mxGeometry width="50" height="50" relative="1" as="geometry">
            <mxPoint x="677" y="5401.5" as="sourcePoint" />
            <mxPoint x="607" y="5331.5" as="targetPoint" />
          </mxGeometry>
        </mxCell>
        <mxCell id="qEKob0JS5A_DqUoURSJI-143" value="" style="whiteSpace=wrap;html=1;aspect=fixed;fillColor=#ffe6cc;strokeColor=#d79b00;" vertex="1" parent="1">
          <mxGeometry x="935" y="5190" width="120" height="120" as="geometry" />
        </mxCell>
        <mxCell id="qEKob0JS5A_DqUoURSJI-144" value="" style="endArrow=none;html=1;rounded=0;entryX=1;entryY=0;entryDx=0;entryDy=0;exitX=0;exitY=1;exitDx=0;exitDy=0;" edge="1" parent="1" source="qEKob0JS5A_DqUoURSJI-143" target="qEKob0JS5A_DqUoURSJI-143">
          <mxGeometry width="50" height="50" relative="1" as="geometry">
            <mxPoint x="960" y="5360" as="sourcePoint" />
            <mxPoint x="1010" y="5310" as="targetPoint" />
          </mxGeometry>
        </mxCell>
        <mxCell id="qEKob0JS5A_DqUoURSJI-145" value="" style="endArrow=none;html=1;rounded=0;entryX=0;entryY=0;entryDx=0;entryDy=0;exitX=1;exitY=1;exitDx=0;exitDy=0;" edge="1" parent="1" source="qEKob0JS5A_DqUoURSJI-143" target="qEKob0JS5A_DqUoURSJI-143">
          <mxGeometry width="50" height="50" relative="1" as="geometry">
            <mxPoint x="960" y="5360" as="sourcePoint" />
            <mxPoint x="1010" y="5310" as="targetPoint" />
          </mxGeometry>
        </mxCell>
      </root>
    </mxGraphModel>
  </diagram>
</mxfile>
